HIERARCHY
ROOT root
{
	OFFSET 0.000000 0.000000 0.000000
	CHANNELS 6 Xposition Yposition Zposition Zrotation Yrotation Xrotation
	JOINT lhip
	{
		OFFSET 0.058581 -0.082280 -0.017664
		CHANNELS 3 Zrotation Yrotation Xrotation
		JOINT lknee
		{
			OFFSET 0.043451 -0.386469 0.008037
			CHANNELS 3 Zrotation Yrotation Xrotation
			JOINT lankle
			{
				OFFSET -0.014790 -0.426874 -0.037428
				CHANNELS 3 Zrotation Yrotation Xrotation
				JOINT ltoe
				{
					OFFSET 0.041054 -0.060286 0.122042
					CHANNELS 3 Zrotation Yrotation Xrotation
					End Site
					{
						OFFSET 0.000000 0.000000 0.000000
					}
				}
			}
		}
	}
	JOINT rhip
	{
		OFFSET -0.060310 -0.090513 -0.013543
		CHANNELS 3 Zrotation Yrotation Xrotation
		JOINT rknee
		{
			OFFSET -0.043257 -0.383688 -0.004843
			CHANNELS 3 Zrotation Yrotation Xrotation
			JOINT rankle
			{
				OFFSET 0.019056 -0.420046 -0.034562
				CHANNELS 3 Zrotation Yrotation Xrotation
				JOINT rtoe
				{
					OFFSET -0.034840 -0.062106 0.130323
					CHANNELS 3 Zrotation Yrotation Xrotation
					End Site
					{
						OFFSET 0.000000 0.000000 0.000000
					}
				}
			}
		}
	}
	JOINT lowerback
	{
		OFFSET 0.004439 0.124404 -0.038385
		CHANNELS 3 Zrotation Yrotation Xrotation
		JOINT upperback
		{
			OFFSET 0.004488 0.137956 0.026820
			CHANNELS 3 Zrotation Yrotation Xrotation
			JOINT chest
			{
				OFFSET -0.002265 0.056032 0.002855
				CHANNELS 3 Zrotation Yrotation Xrotation
				JOINT lowerneck
				{
					OFFSET -0.013390 0.211636 -0.033468
					CHANNELS 3 Zrotation Yrotation Xrotation
					JOINT upperneck
					{
						OFFSET 0.010113 0.088937 0.050410
						CHANNELS 3 Zrotation Yrotation Xrotation
						End Site
						{
							OFFSET 0.000000 0.000000 0.000000
						}
					}
				}
				JOINT lclavicle
				{
					OFFSET 0.071702 0.114000 -0.018898
					CHANNELS 3 Zrotation Yrotation Xrotation
					JOINT lshoulder
					{
						OFFSET 0.122921 0.045205 -0.019046
						CHANNELS 3 Zrotation Yrotation Xrotation
						JOINT lelbow
						{
							OFFSET 0.255332 -0.015649 -0.022946
							CHANNELS 3 Zrotation Yrotation Xrotation
							JOINT lwrist
							{
								OFFSET 0.265709 0.012698 -0.007375
								CHANNELS 3 Zrotation Yrotation Xrotation
								End Site
								{
									OFFSET 0.000000 0.000000 0.000000
								}
							}
						}
					}
				}
				JOINT rclavicle
				{
					OFFSET -0.082954 0.112472 -0.023707
					CHANNELS 3 Zrotation Yrotation Xrotation
					JOINT rshoulder
					{
						OFFSET -0.113228 0.046853 -0.008472
						CHANNELS 3 Zrotation Yrotation Xrotation
						JOINT relbow
						{
							OFFSET -0.260127 -0.014369 -0.031269
							CHANNELS 3 Zrotation Yrotation Xrotation
							JOINT rwrist
							{
								OFFSET -0.269108 0.006794 -0.006027
								CHANNELS 3 Zrotation Yrotation Xrotation
								End Site
								{
									OFFSET 0.000000 0.000000 0.000000
								}
							}
						}
					}
				}
			}
		}
	}
}
MOTION
Frames: 16
Frame Time: 0.033333
0.025465 0.271091 1.018928 93.058261 -0.940105 95.442500 1.643397 2.696433 -12.768939 -3.364006 -8.491890 11.474841 -4.229019 14.045874 -5.296056 0.000000 -0.000000 0.000000 -4.726064 -6.537288 -15.744099 1.050384 3.624288 12.837691 7.457854 -15.107296 -2.006517 0.000000 -0.000000 0.000000 7.435967 -0.934091 17.487244 1.215172 -0.086768 -11.225937 3.555112 0.801609 3.430549 -1.742963 -2.728181 -16.647422 -4.063312 0.798631 -12.915712 1.842603 5.728801 -10.734207 -0.954103 -1.793538 -13.486400 35.052004 -44.664239 -14.516785 16.946118 -19.991524 14.341807 -6.005331 1.959279 -16.368856 -20.749709 7.482070 -24.127737 -24.094249 35.245478 -13.930845 -13.903992 20.481033 16.816218 
0.025336 0.271188 1.018745 92.995185 -0.998973 95.347932 1.579905 2.699803 -12.639576 -3.327553 -8.269500 11.463786 -4.226997 13.866687 -5.332496 0.000000 -0.000000 0.000000 -4.830169 -6.508736 -15.756093 1.009184 3.391514 13.082182 7.525285 -14.830223 -2.101582 0.000000 -0.000000 0.000000 7.366824 -0.793802 17.402661 1.412661 -0.025283 -10.998426 3.395574 0.723524 3.365938 -1.823141 -2.321285 -16.677462 -4.162937 0.403829 -12.574033 0.686942 6.019103 -10.593430 -1.116353 -1.589345 -12.899059 37.409582 -47.116517 -16.816164 18.640448 -20.572820 13.816095 -4.391673 1.569608 -15.895404 -19.766471 7.007420 -23.188136 -27.448678 38.550364 -17.320221 -15.810575 21.219124 14.761880 
0.025069 0.271206 1.018489 93.011472 -1.035824 95.366229 1.571589 2.621345 -12.630924 -3.371603 -8.019558 11.463816 -4.102357 13.711691 -5.253752 0.000000 -0.000000 0.000000 -4.881303 -6.459843 -15.700311 0.891551 3.201322 13.056225 7.536269 -14.634495 -2.120082 0.000000 -0.000000 0.000000 7.265722 -0.712029 17.263281 1.622063 0.013762 -10.798142 3.298893 0.881608 3.245148 -1.936457 -2.199050 -16.656262 -4.213854 0.006199 -12.225968 -0.408718 6.274299 -10.543434 -1.683435 -1.720610 -12.406853 40.255155 -49.204434 -19.540559 20.613821 -20.150758 12.588945 -2.657462 1.154980 -15.165867 -18.578077 6.205193 -22.092333 -31.731873 41.615893 -20.881628 -17.391454 21.716622 13.293631 
0.025037 0.271159 1.018227 93.099385 -1.083097 95.363071 1.516417 2.499591 -12.535498 -3.311044 -7.769418 11.390431 -4.013885 13.451669 -5.241038 0.000000 -0.000000 0.000000 -4.970423 -6.446239 -15.588360 0.808448 2.891058 13.004070 7.524961 -14.340307 -2.151444 0.000000 -0.000000 0.000000 7.176541 -0.635361 17.046770 1.894944 -0.039583 -10.545587 3.182785 0.892750 3.156231 -2.022294 -1.797307 -16.632709 -4.320054 -0.379583 -12.002042 -1.732312 6.624918 -10.503882 -2.270454 -1.731839 -12.013657 43.003547 -50.956184 -22.657443 22.081867 -20.043112 10.684644 -0.619889 0.547604 -14.536484 -17.424742 5.896616 -21.156974 -36.067671 44.429195 -24.306933 -18.910563 22.329353 12.681756 
0.025066 0.271055 1.017974 93.161290 -1.120440 95.355564 1.488052 2.404437 -12.460708 -3.226606 -7.443620 11.301679 -3.935313 13.101503 -5.208710 0.000000 -0.000000 0.000000 -5.053586 -6.371044 -15.547497 0.729281 2.450184 13.029100 7.540554 -13.932862 -2.211184 0.000000 -0.000000 0.000000 7.057374 -0.591674 16.918637 2.160834 -0.094945 -10.331105 3.114472 0.850460 3.018207 -1.992758 -1.385713 -16.759671 -4.564848 -0.750390 -11.644853 -3.203809 7.104532 -10.530854 -3.120140 -1.668768 -11.783211 46.002000 -52.573428 -25.161901 22.512869 -20.573659 10.153441 1.354883 -0.123995 -14.040097 -15.859307 5.660502 -20.125505 -40.706553 47.021190 -27.828040 -19.993873 23.024481 12.243803 
0.025173 0.270936 1.017644 93.159840 -1.124711 95.374324 1.480734 2.347448 -12.432352 -3.163739 -7.087861 11.297285 -3.846271 12.745243 -5.235795 0.000000 -0.000000 0.000000 -5.113715 -6.329459 -15.555815 0.689479 2.101251 13.095146 7.522950 -13.553618 -2.233124 0.000000 -0.000000 0.000000 6.919096 -0.510654 16.749313 2.444690 -0.111779 -10.069575 3.113946 0.878243 2.938489 -2.016272 -1.108824 -17.023571 -4.785340 -1.008012 -11.394892 -4.577543 7.682044 -10.489277 -4.356925 -1.662758 -11.611753 48.892864 -54.054738 -27.653524 23.140660 -20.890791 9.861458 3.345377 -0.807911 -13.433414 -14.242059 5.236276 -19.207795 -45.466249 49.192608 -31.717695 -20.497111 23.487853 11.885286 
0.025366 0.271107 1.017401 93.114723 -1.161606 95.316131 1.445134 2.203964 -12.293014 -3.069465 -6.675130 11.240839 -3.656769 12.409895 -5.249072 0.000000 -0.000000 0.000000 -5.242058 -6.270156 -15.495995 0.663468 1.730038 13.168440 7.510169 -13.093724 -2.202310 0.000000 -0.000000 0.000000 6.866030 -0.479642 16.699749 2.663591 -0.106157 -9.825585 3.092630 0.742102 2.843749 -2.066236 -0.793215 -17.212350 -5.007588 -0.994819 -11.252515 -6.036651 8.446106 -10.497205 -5.985355 -1.532273 -11.306402 52.188695 -55.392689 -30.770514 23.712447 -20.740760 8.241447 5.181189 -1.559752 -12.978992 -12.219791 5.201578 -18.005986 -50.430145 50.939894 -35.816872 -20.903372 23.856683 11.503794 
0.025753 0.271062 1.017008 93.004104 -1.176163 95.265659 1.454868 2.097128 -12.165934 -3.029059 -6.160075 11.223248 -3.467957 12.162325 -5.303020 0.000000 -0.000000 0.000000 -5.295989 -6.235481 -15.447827 0.595813 1.427114 13.261061 7.455687 -12.600792 -2.254203 0.000000 -0.000000 0.000000 6.793113 -0.450828 16.551449 2.839586 -0.066863 -9.570611 3.083673 0.756134 2.815389 -2.003507 -0.796123 -17.212731 -5.165766 -1.056360 -11.139057 -7.611370 9.262911 -10.516082 -7.683823 -1.547232 -10.996543 56.341133 -57.000375 -35.068752 24.710064 -19.872509 6.403138 7.161582 -2.355581 -12.528456 -10.119615 5.135095 -16.997142 -55.013097 52.422994 -39.873252 -21.341875 23.472649 11.071276 
0.026297 0.270977 1.016818 92.828628 -1.228352 95.262127 1.407215 2.005493 -12.016732 -2.975910 -5.691092 11.102867 -3.326785 11.919590 -5.279951 0.000000 -0.000000 0.000000 -5.403685 -6.124509 -15.401008 0.515714 1.068964 13.241770 7.396559 -12.083516 -2.176665 0.000000 -0.000000 0.000000 6.804744 -0.486896 16.306542 2.975837 0.024680 -9.357860 2.983839 0.595702 2.778748 -1.973590 -0.618179 -17.219606 -5.280294 -1.152580 -10.831836 -9.229376 10.212729 -10.532544 -9.860925 -1.781574 -10.584164 62.121706 -58.066391 -40.699565 25.805135 -19.271685 3.840945 9.131982 -3.127631 -12.039722 -7.933683 5.776471 -15.944352 -59.142909 53.424786 -43.483959 -22.003897 23.590219 10.442480 
0.027046 0.271131 1.016351 92.599263 -1.294578 95.239727 1.402769 1.792453 -11.795953 -2.976855 -5.113049 10.947791 -3.160714 11.673021 -5.340526 0.000000 -0.000000 0.000000 -5.557720 -6.030214 -15.364529 0.438206 0.632864 13.311847 7.323081 -11.389755 -2.155495 0.000000 -0.000000 0.000000 6.834484 -0.581503 16.085930 3.079136 0.141692 -9.218741 2.861610 0.473469 2.793044 -1.782858 -0.478427 -17.372861 -5.477776 -1.093077 -10.066835 -10.833362 11.283679 -10.582393 -12.364559 -2.314772 -10.085324 69.715206 -58.879641 -48.301901 27.070574 -18.519716 0.494653 11.152448 -3.795110 -11.877551 -5.377745 6.859164 -14.920544 -63.099081 54.127778 -47.086427 -21.856891 23.781245 9.976325 
0.027567 0.271167 1.016033 92.207140 -1.357654 95.123779 1.464129 1.611482 -11.488254 -3.052275 -4.385153 10.842655 -2.954197 11.461009 -5.363786 0.000000 -0.000000 0.000000 -5.683325 -5.848313 -15.301930 0.314212 0.206822 13.429346 7.300229 -10.592559 -2.146488 0.000000 -0.000000 0.000000 6.806774 -0.601511 16.028477 3.064471 0.454833 -9.264294 2.734372 0.459542 2.851185 -1.585247 -0.334335 -17.256442 -5.471644 -1.064254 -9.370209 -12.418905 12.117684 -10.705701 -15.099636 -3.434934 -9.440950 78.179119 -58.992685 -56.899352 29.541490 -17.385436 -4.540902 13.185364 -4.475098 -11.679545 -2.310692 7.719212 -13.475192 -66.727373 54.332974 -50.245304 -24.281447 23.898625 7.881267 
0.028525 0.270848 1.015681 91.994369 -1.421874 95.048936 1.478076 1.371504 -11.130445 -3.069512 -3.997630 10.642925 -2.758288 11.372465 -5.416037 0.000000 -0.000000 0.000000 -5.766490 -5.742207 -15.108041 0.199991 -0.086474 13.390024 7.206583 -10.101855 -2.152144 0.000000 -0.000000 0.000000 6.773498 -0.638812 15.854838 3.067376 0.648447 -9.366838 2.516712 0.451112 2.851008 -1.242548 -0.171505 -17.164758 -5.388082 -1.267094 -8.327603 -13.944207 12.627238 -10.571317 -17.063597 -4.567621 -8.739631 86.716456 -59.009005 -65.294225 33.387124 -15.508064 -9.248395 15.594796 -4.884764 -11.132282 0.604173 8.349134 -12.001076 -69.876332 54.198020 -53.190403 -29.197278 24.040994 5.155980 
0.029319 0.270297 1.015231 91.786720 -1.465882 94.889928 1.465899 1.160600 -10.791137 -2.975265 -3.525593 10.622872 -2.664384 11.245017 -5.601390 0.000000 -0.000000 0.000000 -5.848197 -5.543653 -14.781740 0.108909 -0.480924 13.262832 7.078739 -9.584968 -2.177984 0.000000 -0.000000 0.000000 6.659195 -0.693238 15.737097 3.086108 0.745691 -9.211588 2.296699 0.461428 2.732853 -0.899623 0.299874 -17.417081 -5.354247 -1.506786 -7.304888 -15.564412 12.735614 -10.829823 -17.514903 -5.252823 -8.050920 95.280210 -58.774491 -73.972497 34.486711 -14.821956 -10.185462 18.267432 -4.962674 -11.275851 3.436931 8.688812 -10.232829 -72.366108 54.303044 -55.935257 -29.552737 23.856887 4.871193 
0.030077 0.269548 1.014754 91.706898 -1.492283 94.793936 1.500227 1.209144 -10.612099 -2.952100 -3.325639 10.675548 -2.566609 11.046783 -5.750449 0.000000 -0.000000 0.000000 -5.861306 -5.539292 -14.674312 0.049862 -0.733581 13.401680 7.051486 -9.152479 -2.323608 0.000000 -0.000000 0.000000 6.321724 -0.703026 15.500073 3.313199 0.639091 -9.107650 2.204260 0.524882 2.612487 -0.690204 0.936110 -17.528784 -5.377348 -2.012514 -6.202327 -16.795227 12.483549 -10.982214 -16.846753 -5.794099 -7.771084 102.541549 -58.344646 -79.819521 36.635460 -15.548016 -9.068831 20.859746 -4.890316 -11.196708 5.900081 8.158450 -8.576850 -73.705167 54.699445 -56.504436 -30.455604 23.985072 4.334889 
0.030884 0.268431 1.014444 91.692493 -1.476649 94.657887 1.538485 1.400563 -10.404090 -2.840563 -3.241548 10.701314 -2.621209 10.799848 -5.857270 0.000000 -0.000000 0.000000 -5.846257 -5.445381 -14.508765 0.016547 -1.055982 13.571803 7.100301 -8.806264 -2.507120 0.000000 -0.000000 0.000000 5.858699 -0.633937 15.297994 3.574457 0.461755 -8.904381 2.261114 0.581702 2.327320 -0.506402 1.770886 -17.745487 -5.444924 -2.821953 -5.124559 -17.205372 11.799771 -11.160764 -15.379101 -6.265041 -8.084157 108.140795 -57.621712 -83.278333 36.835470 -17.490522 -4.398116 22.898096 -4.659427 -10.988046 8.736281 7.128198 -7.012689 -73.586904 55.090463 -55.836646 -30.087681 23.904371 3.942964 
0.032172 0.267016 1.014366 91.972543 -1.332532 94.638924 1.741389 1.503277 -10.279886 -2.685356 -3.177739 10.585292 -2.797496 10.476839 -5.880138 0.000000 -0.000000 0.000000 -5.665329 -5.319370 -14.239253 -0.037843 -1.627676 13.476988 6.989693 -8.577011 -2.573187 0.000000 -0.000000 0.000000 5.326491 -0.542119 14.958261 4.075095 0.128564 -8.816368 2.451546 0.440073 1.925054 -0.547799 3.046519 -17.782544 -5.698613 -3.919171 -4.269460 -16.975237 11.123452 -11.063416 -13.379786 -6.948809 -8.951861 112.056819 -56.510269 -85.362481 34.080726 -20.349235 -1.269306 24.656632 -4.690609 -10.454185 11.431604 6.408338 -5.662255 -71.464597 54.990804 -52.522026 -29.780604 24.379471 4.439486 
